{
	"asset":{
		"generator":"Khronos glTF Blender I/O v4.2.70",
		"version":"2.0"
	},
	"scene":0,
	"scenes":[
		{
			"name":"Scene",
			"nodes":[
				16
			]
		}
	],
	"nodes":[
		{
			"mesh":0,
			"name":"Assembly_DELTA001",
			"translation":[
				-0.07315002381801605,
				0.00017082691192626953,
				0.5316780805587769
			]
		},
		{
			"mesh":1,
			"name":"Assembly_DELTA002",
			"rotation":[
				0,
				0,
				0.301035612821579,
				0.9536129236221313
			],
			"translation":[
				0.00034997702459804714,
				-0.07332921028137207,
				0.5316780805587769
			]
		},
		{
			"mesh":2,
			"name":"Assembly_DELTA003",
			"translation":[
				0.07384997606277466,
				0.00017082691192626953,
				0.5316781401634216
			]
		},
		{
			"mesh":3,
			"name":"Assembly_DELTA004",
			"translation":[
				0.00034997702459804714,
				0.07367086410522461,
				0.5316780805587769
			]
		},
		{
			"mesh":4,
			"name":"Assembly_DELTA011",
			"rotation":[
				0.7071068286895752,
				0.7071068286895752,
				0,
				8.231620940435391e-11
			],
			"translation":[
				0.0003499769954942167,
				0.00017082692647818476,
				0.49167805910110474
			]
		},
		{
			"mesh":5,
			"name":"Assembly_DELTA017",
			"rotation":[
				0,
				0,
				-0.9238795638084412,
				0.3826833963394165
			],
			"translation":[
				0.0003499771119095385,
				0.00017082691192626953,
				0.29917803406715393
			]
		},
		{
			"mesh":6,
			"name":"Assembly_DELTA030",
			"rotation":[
				-0.6002202033996582,
				-0.37381237745285034,
				0.37381237745285034,
				0.6002203226089478
			],
			"translation":[
				0.00034997728653252125,
				0.00017082691192626953,
				-2.137321949005127
			]
		},
		{
			"mesh":7,
			"name":"Bah\u00eda",
			"rotation":[
				-0.2655066251754761,
				-0.6553672552108765,
				0.6553672552108765,
				0.2655065953731537
			],
			"translation":[
				-0.002269407268613577,
				0.0010735989781096578,
				-1.2823219299316406
			]
		},
		{
			"mesh":8,
			"name":"Engine",
			"rotation":[
				0,
				0,
				0.4584636688232422,
				0.8887131810188293
			],
			"translation":[
				0.0003499769954942167,
				0.00017082692647818476,
				0.49167805910110474
			]
		},
		{
			"mesh":9,
			"name":"fuselaje",
			"rotation":[
				0,
				0,
				-0.05673148110508919,
				0.998389482498169
			],
			"translation":[
				0.0003499771701171994,
				0.00017082691192626953,
				0.52167809009552
			]
		},
		{
			"mesh":10,
			"name":"Ojiva",
			"rotation":[
				-0.16244778037071228,
				-0.6881937980651855,
				-0.15773943066596985,
				0.6892882585525513
			],
			"translation":[
				-0.002280286280438304,
				-0.0032989978790283203,
				-2.7379915714263916
			]
		},
		{
			"mesh":11,
			"name":"wing1",
			"rotation":[
				0,
				0,
				-0.9238795638084412,
				0.3826833963394165
			],
			"translation":[
				-0.04066222161054611,
				-0.04084134101867676,
				0.5566781163215637
			]
		},
		{
			"mesh":12,
			"name":"wing2",
			"rotation":[
				0,
				0,
				0.9238795638084412,
				0.3826833963394165
			],
			"translation":[
				-0.040662217885255814,
				0.0411829948425293,
				0.5566781163215637
			]
		},
		{
			"mesh":13,
			"name":"wing3",
			"rotation":[
				0,
				0,
				0.3826834559440613,
				0.9238795638084412
			],
			"translation":[
				0.04136217013001442,
				0.0411829948425293,
				0.5566781163215637
			]
		},
		{
			"mesh":14,
			"name":"wing4",
			"rotation":[
				0,
				0,
				-0.3826834559440613,
				0.9238795638084412
			],
			"translation":[
				0.04136217013001442,
				-0.04084134101867676,
				0.5566781163215637
			]
		},
		{
			"children":[
				0,
				1,
				2,
				3,
				4,
				5,
				6,
				7,
				8,
				9,
				10,
				11,
				12,
				13,
				14
			],
			"name":"Unnamed",
			"translation":[
				0,
				0,
				1.2847906351089478
			]
		},
		{
			"children":[
				15
			],
			"name":"charlieTextured.gltf",
			"rotation":[
				0.7071057558059692,
				-0.001234133611433208,
				-0.0012341334950178862,
				0.7071056962013245
			],
			"scale":[
				2,
				2,
				1.9999998807907104
			],
			"translation":[
				0,
				3.6762466430664062,
				0
			]
		}
	],
	"materials":[
		{
			"doubleSided":true,
			"name":"mat_1",
			"pbrMetallicRoughness":{
				"baseColorFactor":[
					0.6038273572921753,
					0.6038273572921753,
					0.6038273572921753,
					1
				]
			}
		},
		{
			"doubleSided":true,
			"name":"Ojiva",
			"pbrMetallicRoughness":{
				"baseColorFactor":[
					0.8003553152084351,
					0.009989365004003048,
					0.02418568730354309,
					1
				],
				"metallicFactor":0,
				"roughnessFactor":0.5
			}
		},
		{
			"doubleSided":true,
			"name":"Fuselaje",
			"pbrMetallicRoughness":{
				"baseColorTexture":{
					"index":0
				},
				"metallicFactor":0,
				"roughnessFactor":0.5
			}
		},
		{
			"doubleSided":true,
			"name":"Metal",
			"pbrMetallicRoughness":{
				"baseColorFactor":[
					0.43415090441703796,
					0.43415409326553345,
					0.4341539442539215,
					1
				],
				"roughnessFactor":0.5
			}
		},
		{
			"doubleSided":true,
			"name":"Carbone",
			"pbrMetallicRoughness":{
				"baseColorFactor":[
					0,
					0,
					0,
					1
				],
				"metallicFactor":0,
				"roughnessFactor":0.5
			}
		}
	],
	"meshes":[
		{
			"name":"Mesh_0",
			"primitives":[
				{
					"attributes":{
						"POSITION":0,
						"NORMAL":1
					},
					"indices":2,
					"material":0
				}
			]
		},
		{
			"name":"Mesh_1",
			"primitives":[
				{
					"attributes":{
						"POSITION":3,
						"NORMAL":4
					},
					"indices":2,
					"material":0
				}
			]
		},
		{
			"name":"Mesh_2",
			"primitives":[
				{
					"attributes":{
						"POSITION":5,
						"NORMAL":6
					},
					"indices":2,
					"material":0
				}
			]
		},
		{
			"name":"Mesh_3",
			"primitives":[
				{
					"attributes":{
						"POSITION":7,
						"NORMAL":8
					},
					"indices":2,
					"material":0
				}
			]
		},
		{
			"name":"Mesh_4",
			"primitives":[
				{
					"attributes":{
						"POSITION":9,
						"NORMAL":10
					},
					"indices":11,
					"material":0
				}
			]
		},
		{
			"name":"Mesh_5",
			"primitives":[
				{
					"attributes":{
						"POSITION":12,
						"NORMAL":13
					},
					"indices":14,
					"material":0
				}
			]
		},
		{
			"name":"Mesh_6",
			"primitives":[
				{
					"attributes":{
						"POSITION":15,
						"NORMAL":16
					},
					"indices":17,
					"material":1
				}
			]
		},
		{
			"name":"Mesh_7",
			"primitives":[
				{
					"attributes":{
						"POSITION":18,
						"NORMAL":19
					},
					"indices":20,
					"material":0
				}
			]
		},
		{
			"name":"Mesh_8",
			"primitives":[
				{
					"attributes":{
						"POSITION":21,
						"NORMAL":22
					},
					"indices":23,
					"material":0
				}
			]
		},
		{
			"name":"Mesh_9",
			"primitives":[
				{
					"attributes":{
						"POSITION":24,
						"NORMAL":25,
						"TEXCOORD_0":26
					},
					"indices":27,
					"material":2
				}
			]
		},
		{
			"name":"Mesh_10",
			"primitives":[
				{
					"attributes":{
						"POSITION":28,
						"NORMAL":29
					},
					"indices":30,
					"material":1
				},
				{
					"attributes":{
						"POSITION":31,
						"NORMAL":32
					},
					"indices":33,
					"material":3
				}
			]
		},
		{
			"name":"Mesh_11",
			"primitives":[
				{
					"attributes":{
						"POSITION":34,
						"NORMAL":35
					},
					"indices":36,
					"material":4
				}
			]
		},
		{
			"name":"Mesh_12",
			"primitives":[
				{
					"attributes":{
						"POSITION":37,
						"NORMAL":38
					},
					"indices":36,
					"material":4
				}
			]
		},
		{
			"name":"Mesh_13",
			"primitives":[
				{
					"attributes":{
						"POSITION":39,
						"NORMAL":40
					},
					"indices":36,
					"material":4
				}
			]
		},
		{
			"name":"Mesh_14",
			"primitives":[
				{
					"attributes":{
						"POSITION":41,
						"NORMAL":42
					},
					"indices":36,
					"material":4
				}
			]
		}
	],
	"textures":[
		{
			"sampler":0,
			"source":0
		}
	],
	"images":[
		{
			"mimeType":"image/png",
			"name":"Image_0",
			"uri":"Image_0.png"
		}
	],
	"accessors":[
		{
			"bufferView":0,
			"componentType":5126,
			"count":158,
			"max":[
				0.004999999888241291,
				0.004999999888241291,
				0
			],
			"min":[
				-0.004999999888241291,
				-0.004999999888241291,
				-1.350000023841858
			],
			"type":"VEC3"
		},
		{
			"bufferView":1,
			"componentType":5126,
			"count":158,
			"type":"VEC3"
		},
		{
			"bufferView":2,
			"componentType":5123,
			"count":336,
			"type":"SCALAR"
		},
		{
			"bufferView":3,
			"componentType":5126,
			"count":158,
			"max":[
				0.004999999888241291,
				0.004999999888241291,
				0
			],
			"min":[
				-0.004999999888241291,
				-0.004999999888241291,
				-1.350000023841858
			],
			"type":"VEC3"
		},
		{
			"bufferView":4,
			"componentType":5126,
			"count":158,
			"type":"VEC3"
		},
		{
			"bufferView":5,
			"componentType":5126,
			"count":158,
			"max":[
				0.004999999888241291,
				0.004999999888241291,
				0
			],
			"min":[
				-0.004999999888241291,
				-0.004999999888241291,
				-1.350000023841858
			],
			"type":"VEC3"
		},
		{
			"bufferView":6,
			"componentType":5126,
			"count":158,
			"type":"VEC3"
		},
		{
			"bufferView":7,
			"componentType":5126,
			"count":158,
			"max":[
				0.004999999888241291,
				0.004999999888241291,
				0
			],
			"min":[
				-0.004999999888241291,
				-0.004999999888241291,
				-1.350000023841858
			],
			"type":"VEC3"
		},
		{
			"bufferView":8,
			"componentType":5126,
			"count":158,
			"type":"VEC3"
		},
		{
			"bufferView":9,
			"componentType":5126,
			"count":1454,
			"max":[
				0.09700000286102295,
				0.09700000286102295,
				2.2737368624290214e-16
			],
			"min":[
				-0.09700000286102295,
				-0.09700000286102295,
				-0.029999999329447746
			],
			"type":"VEC3"
		},
		{
			"bufferView":10,
			"componentType":5126,
			"count":1454,
			"type":"VEC3"
		},
		{
			"bufferView":11,
			"componentType":5123,
			"count":2844,
			"type":"SCALAR"
		},
		{
			"bufferView":12,
			"componentType":5126,
			"count":1826,
			"max":[
				0.09799999743700027,
				0.09799999743700027,
				0.007499999832361937
			],
			"min":[
				-0.09799999743700027,
				-0.09799999743700027,
				-0.007499999832361937
			],
			"type":"VEC3"
		},
		{
			"bufferView":13,
			"componentType":5126,
			"count":1826,
			"type":"VEC3"
		},
		{
			"bufferView":14,
			"componentType":5123,
			"count":2832,
			"type":"SCALAR"
		},
		{
			"bufferView":15,
			"componentType":5126,
			"count":16953,
			"max":[
				0.10000000149011612,
				0.10000003129243851,
				0.09999583661556244
			],
			"min":[
				-0.09999583661556244,
				-0.054999999701976776,
				-0.09999972581863403
			],
			"type":"VEC3"
		},
		{
			"bufferView":16,
			"componentType":5126,
			"count":16953,
			"type":"VEC3"
		},
		{
			"bufferView":17,
			"componentType":5123,
			"count":46452,
			"type":"SCALAR"
		},
		{
			"bufferView":18,
			"componentType":5126,
			"count":4733,
			"max":[
				0.09049999713897705,
				0.11999999731779099,
				0.09049999713897705
			],
			"min":[
				-0.09049999713897705,
				0,
				-0.09049999713897705
			],
			"type":"VEC3"
		},
		{
			"bufferView":19,
			"componentType":5126,
			"count":4733,
			"type":"VEC3"
		},
		{
			"bufferView":20,
			"componentType":5123,
			"count":8670,
			"type":"SCALAR"
		},
		{
			"bufferView":21,
			"componentType":5126,
			"count":1130,
			"max":[
				0.04899999871850014,
				0.04899999871850014,
				0.05000000074505806
			],
			"min":[
				-0.04899999871850014,
				-0.04899999871850014,
				-1.2790000438690186
			],
			"type":"VEC3"
		},
		{
			"bufferView":22,
			"componentType":5126,
			"count":1130,
			"type":"VEC3"
		},
		{
			"bufferView":23,
			"componentType":5123,
			"count":1944,
			"type":"SCALAR"
		},
		{
			"bufferView":24,
			"componentType":5126,
			"count":640,
			"max":[
				0.10000000149011612,
				0.10000000149011612,
				0
			],
			"min":[
				-0.10000000149011612,
				-0.10000000149011612,
				-2.628999948501587
			],
			"type":"VEC3"
		},
		{
			"bufferView":25,
			"componentType":5126,
			"count":640,
			"type":"VEC3"
		},
		{
			"bufferView":26,
			"componentType":5126,
			"count":640,
			"type":"VEC2"
		},
		{
			"bufferView":27,
			"componentType":5123,
			"count":1080,
			"type":"SCALAR"
		},
		{
			"bufferView":28,
			"componentType":5126,
			"count":3681,
			"max":[
				0.6000136733055115,
				0.0999707505106926,
				0.09999854117631912
			],
			"min":[
				0,
				-0.09991798549890518,
				-0.09999626874923706
			],
			"type":"VEC3"
		},
		{
			"bufferView":29,
			"componentType":5126,
			"count":3681,
			"type":"VEC3"
		},
		{
			"bufferView":30,
			"componentType":5123,
			"count":20985,
			"type":"SCALAR"
		},
		{
			"bufferView":31,
			"componentType":5126,
			"count":410,
			"max":[
				0.04418404772877693,
				0.01815236732363701,
				0.018172116950154305
			],
			"min":[
				0,
				-0.018138980492949486,
				-0.018178153783082962
			],
			"type":"VEC3"
		},
		{
			"bufferView":32,
			"componentType":5126,
			"count":410,
			"type":"VEC3"
		},
		{
			"bufferView":33,
			"componentType":5123,
			"count":2145,
			"type":"SCALAR"
		},
		{
			"bufferView":34,
			"componentType":5126,
			"count":716,
			"max":[
				0.24199999868869781,
				0.0010000000474974513,
				0
			],
			"min":[
				0,
				-0.0010000000474974513,
				-0.3499999940395355
			],
			"type":"VEC3"
		},
		{
			"bufferView":35,
			"componentType":5126,
			"count":716,
			"type":"VEC3"
		},
		{
			"bufferView":36,
			"componentType":5123,
			"count":1080,
			"type":"SCALAR"
		},
		{
			"bufferView":37,
			"componentType":5126,
			"count":716,
			"max":[
				0.24199999868869781,
				0.0010000000474974513,
				0
			],
			"min":[
				0,
				-0.0010000000474974513,
				-0.3499999940395355
			],
			"type":"VEC3"
		},
		{
			"bufferView":38,
			"componentType":5126,
			"count":716,
			"type":"VEC3"
		},
		{
			"bufferView":39,
			"componentType":5126,
			"count":716,
			"max":[
				0.24199999868869781,
				0.0010000000474974513,
				0
			],
			"min":[
				0,
				-0.0010000000474974513,
				-0.3499999940395355
			],
			"type":"VEC3"
		},
		{
			"bufferView":40,
			"componentType":5126,
			"count":716,
			"type":"VEC3"
		},
		{
			"bufferView":41,
			"componentType":5126,
			"count":716,
			"max":[
				0.24199999868869781,
				0.0010000000474974513,
				0
			],
			"min":[
				0,
				-0.0010000000474974513,
				-0.3499999940395355
			],
			"type":"VEC3"
		},
		{
			"bufferView":42,
			"componentType":5126,
			"count":716,
			"type":"VEC3"
		}
	],
	"bufferViews":[
		{
			"buffer":0,
			"byteLength":1896,
			"byteOffset":0,
			"target":34962
		},
		{
			"buffer":0,
			"byteLength":1896,
			"byteOffset":1896,
			"target":34962
		},
		{
			"buffer":0,
			"byteLength":672,
			"byteOffset":3792,
			"target":34963
		},
		{
			"buffer":0,
			"byteLength":1896,
			"byteOffset":4464,
			"target":34962
		},
		{
			"buffer":0,
			"byteLength":1896,
			"byteOffset":6360,
			"target":34962
		},
		{
			"buffer":0,
			"byteLength":1896,
			"byteOffset":8256,
			"target":34962
		},
		{
			"buffer":0,
			"byteLength":1896,
			"byteOffset":10152,
			"target":34962
		},
		{
			"buffer":0,
			"byteLength":1896,
			"byteOffset":12048,
			"target":34962
		},
		{
			"buffer":0,
			"byteLength":1896,
			"byteOffset":13944,
			"target":34962
		},
		{
			"buffer":0,
			"byteLength":17448,
			"byteOffset":15840,
			"target":34962
		},
		{
			"buffer":0,
			"byteLength":17448,
			"byteOffset":33288,
			"target":34962
		},
		{
			"buffer":0,
			"byteLength":5688,
			"byteOffset":50736,
			"target":34963
		},
		{
			"buffer":0,
			"byteLength":21912,
			"byteOffset":56424,
			"target":34962
		},
		{
			"buffer":0,
			"byteLength":21912,
			"byteOffset":78336,
			"target":34962
		},
		{
			"buffer":0,
			"byteLength":5664,
			"byteOffset":100248,
			"target":34963
		},
		{
			"buffer":0,
			"byteLength":203436,
			"byteOffset":105912,
			"target":34962
		},
		{
			"buffer":0,
			"byteLength":203436,
			"byteOffset":309348,
			"target":34962
		},
		{
			"buffer":0,
			"byteLength":92904,
			"byteOffset":512784,
			"target":34963
		},
		{
			"buffer":0,
			"byteLength":56796,
			"byteOffset":605688,
			"target":34962
		},
		{
			"buffer":0,
			"byteLength":56796,
			"byteOffset":662484,
			"target":34962
		},
		{
			"buffer":0,
			"byteLength":17340,
			"byteOffset":719280,
			"target":34963
		},
		{
			"buffer":0,
			"byteLength":13560,
			"byteOffset":736620,
			"target":34962
		},
		{
			"buffer":0,
			"byteLength":13560,
			"byteOffset":750180,
			"target":34962
		},
		{
			"buffer":0,
			"byteLength":3888,
			"byteOffset":763740,
			"target":34963
		},
		{
			"buffer":0,
			"byteLength":7680,
			"byteOffset":767628,
			"target":34962
		},
		{
			"buffer":0,
			"byteLength":7680,
			"byteOffset":775308,
			"target":34962
		},
		{
			"buffer":0,
			"byteLength":5120,
			"byteOffset":782988,
			"target":34962
		},
		{
			"buffer":0,
			"byteLength":2160,
			"byteOffset":788108,
			"target":34963
		},
		{
			"buffer":0,
			"byteLength":44172,
			"byteOffset":790268,
			"target":34962
		},
		{
			"buffer":0,
			"byteLength":44172,
			"byteOffset":834440,
			"target":34962
		},
		{
			"buffer":0,
			"byteLength":41970,
			"byteOffset":878612,
			"target":34963
		},
		{
			"buffer":0,
			"byteLength":4920,
			"byteOffset":920584,
			"target":34962
		},
		{
			"buffer":0,
			"byteLength":4920,
			"byteOffset":925504,
			"target":34962
		},
		{
			"buffer":0,
			"byteLength":4290,
			"byteOffset":930424,
			"target":34963
		},
		{
			"buffer":0,
			"byteLength":8592,
			"byteOffset":934716,
			"target":34962
		},
		{
			"buffer":0,
			"byteLength":8592,
			"byteOffset":943308,
			"target":34962
		},
		{
			"buffer":0,
			"byteLength":2160,
			"byteOffset":951900,
			"target":34963
		},
		{
			"buffer":0,
			"byteLength":8592,
			"byteOffset":954060,
			"target":34962
		},
		{
			"buffer":0,
			"byteLength":8592,
			"byteOffset":962652,
			"target":34962
		},
		{
			"buffer":0,
			"byteLength":8592,
			"byteOffset":971244,
			"target":34962
		},
		{
			"buffer":0,
			"byteLength":8592,
			"byteOffset":979836,
			"target":34962
		},
		{
			"buffer":0,
			"byteLength":8592,
			"byteOffset":988428,
			"target":34962
		},
		{
			"buffer":0,
			"byteLength":8592,
			"byteOffset":997020,
			"target":34962
		}
	],
	"samplers":[
		{
			"magFilter":9729,
			"minFilter":9987,
			"wrapS":33071,
			"wrapT":33071
		}
	],
	"buffers":[
		{
			"byteLength":1005612,
			"uri":"charlie.bin"
		}
	]
}
