{
	"asset":{
		"generator":"Khronos glTF Blender I/O v4.2.70",
		"version":"2.0"
	},
	"scene":0,
	"scenes":[
		{
			"name":"Scene",
			"nodes":[
				0,
				1,
				2,
				3,
				4,
				5
			]
		}
	],
	"nodes":[
		{
			"mesh":0,
			"name":"atlas",
			"scale":[
				0.004999999888241291,
				0.004999999888241291,
				0.004999999888241291
			]
		},
		{
			"mesh":1,
			"name":"aula_espacio",
			"rotation":[
				-0.247766375541687,
				-0.24776634573936462,
				0.6622777581214905,
				0.6622777581214905
			],
			"scale":[
				0.4575648903846741,
				0.457565039396286,
				0.457565039396286
			],
			"translation":[
				-0.15643668174743652,
				1.0790444612503052,
				-0.1373234987258911
			]
		},
		{
			"mesh":2,
			"name":"eib",
			"rotation":[
				-0.6443387866020203,
				-0.6443386673927307,
				0.2912517488002777,
				0.2912517488002777
			],
			"scale":[
				0.18593811988830566,
				0.18593813478946686,
				0.18593813478946686
			],
			"translation":[
				0.13915200531482697,
				2.3796699047088623,
				-0.16764064133167267
			]
		},
		{
			"mesh":3,
			"name":"otxarki",
			"rotation":[
				0.64326012134552,
				0.6432600617408752,
				0.2936263978481293,
				0.29362642765045166
			],
			"scale":[
				0.27196624875068665,
				0.27196624875068665,
				0.27196624875068665
			],
			"translation":[
				0.18091453611850739,
				2.5474445819854736,
				0.1539158970117569
			]
		},
		{
			"mesh":4,
			"name":"svp",
			"rotation":[
				-0.6361889243125916,
				-0.636188805103302,
				0.3086481988430023,
				0.3086482286453247
			],
			"scale":[
				0.9655133485794067,
				0.6778692007064819,
				0.6778692007064819
			],
			"translation":[
				0.15720930695533752,
				1.6513274908065796,
				-0.19623692333698273
			]
		},
		{
			"mesh":5,
			"name":"rotork",
			"rotation":[
				-0.6685367822647095,
				-0.6685367226600647,
				0.2303444892168045,
				0.2303445190191269
			],
			"scale":[
				0.16960018873214722,
				0.1696002036333084,
				0.1696002036333084
			],
			"translation":[
				0.20487207174301147,
				0.8756000995635986,
				-0.16181063652038574
			]
		}
	],
	"materials":[
		{
			"doubleSided":true,
			"name":"Base",
			"pbrMetallicRoughness":{
				"baseColorFactor":[
					0.800000011920929,
					0.800000011920929,
					0.800000011920929,
					1
				],
				"metallicFactor":0,
				"roughnessFactor":0.5
			}
		},
		{
			"doubleSided":true,
			"name":"Red",
			"pbrMetallicRoughness":{
				"baseColorFactor":[
					0.4019756615161896,
					0.025186840444803238,
					0.012983047403395176,
					1
				],
				"metallicFactor":0,
				"roughnessFactor":0.5
			}
		},
		{
			"alphaMode":"BLEND",
			"doubleSided":true,
			"name":"aula_espacio",
			"pbrMetallicRoughness":{
				"baseColorTexture":{
					"index":0
				},
				"metallicFactor":0,
				"roughnessFactor":0.5
			}
		},
		{
			"alphaMode":"BLEND",
			"doubleSided":true,
			"name":"eib",
			"pbrMetallicRoughness":{
				"baseColorTexture":{
					"index":1
				},
				"metallicFactor":0,
				"roughnessFactor":0.5
			}
		},
		{
			"alphaMode":"BLEND",
			"doubleSided":true,
			"name":"otxarki",
			"pbrMetallicRoughness":{
				"baseColorTexture":{
					"index":2
				},
				"metallicFactor":0,
				"roughnessFactor":0.5
			}
		},
		{
			"alphaMode":"BLEND",
			"doubleSided":true,
			"name":"svp",
			"pbrMetallicRoughness":{
				"baseColorTexture":{
					"index":3
				},
				"metallicFactor":0,
				"roughnessFactor":0.5
			}
		},
		{
			"alphaMode":"BLEND",
			"doubleSided":true,
			"name":"rotork",
			"pbrMetallicRoughness":{
				"baseColorTexture":{
					"index":4
				},
				"metallicFactor":0,
				"roughnessFactor":0.5
			}
		}
	],
	"meshes":[
		{
			"name":"atlas",
			"primitives":[
				{
					"attributes":{
						"POSITION":0,
						"NORMAL":1,
						"TEXCOORD_0":2
					},
					"indices":3,
					"material":0
				},
				{
					"attributes":{
						"POSITION":4,
						"NORMAL":5,
						"TEXCOORD_0":6
					},
					"indices":7,
					"material":1
				}
			]
		},
		{
			"name":"aula_espacio",
			"primitives":[
				{
					"attributes":{
						"POSITION":8,
						"NORMAL":9,
						"TEXCOORD_0":10
					},
					"indices":11,
					"material":2
				}
			]
		},
		{
			"name":"eib",
			"primitives":[
				{
					"attributes":{
						"POSITION":12,
						"NORMAL":13,
						"TEXCOORD_0":14
					},
					"indices":15,
					"material":3
				}
			]
		},
		{
			"name":"otxarki",
			"primitives":[
				{
					"attributes":{
						"POSITION":16,
						"NORMAL":17,
						"TEXCOORD_0":18
					},
					"indices":19,
					"material":4
				}
			]
		},
		{
			"name":"svp.001",
			"primitives":[
				{
					"attributes":{
						"POSITION":20,
						"NORMAL":21,
						"TEXCOORD_0":22
					},
					"indices":23,
					"material":5
				}
			]
		},
		{
			"name":"rotork",
			"primitives":[
				{
					"attributes":{
						"POSITION":24,
						"NORMAL":25,
						"TEXCOORD_0":26
					},
					"indices":27,
					"material":6
				}
			]
		}
	],
	"textures":[
		{
			"sampler":0,
			"source":0
		},
		{
			"sampler":0,
			"source":1
		},
		{
			"sampler":0,
			"source":2
		},
		{
			"sampler":0,
			"source":3
		},
		{
			"sampler":0,
			"source":4
		}
	],
	"images":[
		{
			"mimeType":"image/png",
			"name":"aula_espacio",
			"uri":"aula_espacio.png"
		},
		{
			"mimeType":"image/png",
			"name":"eib",
			"uri":"eib.png"
		},
		{
			"mimeType":"image/png",
			"name":"otxarki",
			"uri":"otxarki.png"
		},
		{
			"mimeType":"image/png",
			"name":"svp",
			"uri":"svp.png"
		},
		{
			"mimeType":"image/png",
			"name":"rotork",
			"uri":"rotork.png"
		}
	],
	"accessors":[
		{
			"bufferView":0,
			"componentType":5126,
			"count":6768,
			"max":[
				139,
				1049.676513671875,
				138
			],
			"min":[
				-139,
				0,
				-138
			],
			"type":"VEC3"
		},
		{
			"bufferView":1,
			"componentType":5126,
			"count":6768,
			"type":"VEC3"
		},
		{
			"bufferView":2,
			"componentType":5126,
			"count":6768,
			"type":"VEC2"
		},
		{
			"bufferView":3,
			"componentType":5123,
			"count":8583,
			"type":"SCALAR"
		},
		{
			"bufferView":4,
			"componentType":5126,
			"count":2076,
			"max":[
				39,
				620,
				38.99888229370117
			],
			"min":[
				-39,
				0,
				-39.14113235473633
			],
			"type":"VEC3"
		},
		{
			"bufferView":5,
			"componentType":5126,
			"count":2076,
			"type":"VEC3"
		},
		{
			"bufferView":6,
			"componentType":5126,
			"count":2076,
			"type":"VEC2"
		},
		{
			"bufferView":7,
			"componentType":5123,
			"count":2787,
			"type":"SCALAR"
		},
		{
			"bufferView":8,
			"componentType":5126,
			"count":12545,
			"max":[
				0.7519493103027344,
				0.03494158387184143,
				0.445249080657959
			],
			"min":[
				-0.7851412296295166,
				-0.1715717315673828,
				-0.4938242435455322
			],
			"type":"VEC3"
		},
		{
			"bufferView":9,
			"componentType":5126,
			"count":12545,
			"type":"VEC3"
		},
		{
			"bufferView":10,
			"componentType":5126,
			"count":12545,
			"type":"VEC2"
		},
		{
			"bufferView":11,
			"componentType":5123,
			"count":24576,
			"type":"SCALAR"
		},
		{
			"bufferView":12,
			"componentType":5126,
			"count":10655,
			"max":[
				1.068293571472168,
				-0.11983299255371094,
				0.4043078124523163
			],
			"min":[
				-1.070845603942871,
				-0.215661883354187,
				-0.42288315296173096
			],
			"type":"VEC3"
		},
		{
			"bufferView":13,
			"componentType":5126,
			"count":10655,
			"type":"VEC3"
		},
		{
			"bufferView":14,
			"componentType":5126,
			"count":10655,
			"type":"VEC2"
		},
		{
			"bufferView":15,
			"componentType":5123,
			"count":24576,
			"type":"SCALAR"
		},
		{
			"bufferView":16,
			"componentType":5126,
			"count":10112,
			"max":[
				1.0019607543945312,
				-0.14456236362457275,
				0.28886622190475464
			],
			"min":[
				-1.0049724578857422,
				-0.28088587522506714,
				-0.4126647114753723
			],
			"type":"VEC3"
		},
		{
			"bufferView":17,
			"componentType":5126,
			"count":10112,
			"type":"VEC3"
		},
		{
			"bufferView":18,
			"componentType":5126,
			"count":10112,
			"type":"VEC2"
		},
		{
			"bufferView":19,
			"componentType":5123,
			"count":24576,
			"type":"SCALAR"
		},
		{
			"bufferView":20,
			"componentType":5126,
			"count":12502,
			"max":[
				0.5012969970703125,
				-0.08265987038612366,
				0.23615235090255737
			],
			"min":[
				-0.501214861869812,
				-0.20119759440422058,
				-0.2294749617576599
			],
			"type":"VEC3"
		},
		{
			"bufferView":21,
			"componentType":5126,
			"count":12502,
			"type":"VEC3"
		},
		{
			"bufferView":22,
			"componentType":5126,
			"count":12502,
			"type":"VEC2"
		},
		{
			"bufferView":23,
			"componentType":5123,
			"count":24576,
			"type":"SCALAR"
		},
		{
			"bufferView":24,
			"componentType":5126,
			"count":8626,
			"max":[
				1.7079825401306152,
				-0.3866664171218872,
				0.3597360849380493
			],
			"min":[
				-1.6997261047363281,
				-0.4470980167388916,
				-0.36410054564476013
			],
			"type":"VEC3"
		},
		{
			"bufferView":25,
			"componentType":5126,
			"count":8626,
			"type":"VEC3"
		},
		{
			"bufferView":26,
			"componentType":5126,
			"count":8626,
			"type":"VEC2"
		},
		{
			"bufferView":27,
			"componentType":5123,
			"count":24576,
			"type":"SCALAR"
		}
	],
	"bufferViews":[
		{
			"buffer":0,
			"byteLength":81216,
			"byteOffset":0,
			"target":34962
		},
		{
			"buffer":0,
			"byteLength":81216,
			"byteOffset":81216,
			"target":34962
		},
		{
			"buffer":0,
			"byteLength":54144,
			"byteOffset":162432,
			"target":34962
		},
		{
			"buffer":0,
			"byteLength":17166,
			"byteOffset":216576,
			"target":34963
		},
		{
			"buffer":0,
			"byteLength":24912,
			"byteOffset":233744,
			"target":34962
		},
		{
			"buffer":0,
			"byteLength":24912,
			"byteOffset":258656,
			"target":34962
		},
		{
			"buffer":0,
			"byteLength":16608,
			"byteOffset":283568,
			"target":34962
		},
		{
			"buffer":0,
			"byteLength":5574,
			"byteOffset":300176,
			"target":34963
		},
		{
			"buffer":0,
			"byteLength":150540,
			"byteOffset":305752,
			"target":34962
		},
		{
			"buffer":0,
			"byteLength":150540,
			"byteOffset":456292,
			"target":34962
		},
		{
			"buffer":0,
			"byteLength":100360,
			"byteOffset":606832,
			"target":34962
		},
		{
			"buffer":0,
			"byteLength":49152,
			"byteOffset":707192,
			"target":34963
		},
		{
			"buffer":0,
			"byteLength":127860,
			"byteOffset":756344,
			"target":34962
		},
		{
			"buffer":0,
			"byteLength":127860,
			"byteOffset":884204,
			"target":34962
		},
		{
			"buffer":0,
			"byteLength":85240,
			"byteOffset":1012064,
			"target":34962
		},
		{
			"buffer":0,
			"byteLength":49152,
			"byteOffset":1097304,
			"target":34963
		},
		{
			"buffer":0,
			"byteLength":121344,
			"byteOffset":1146456,
			"target":34962
		},
		{
			"buffer":0,
			"byteLength":121344,
			"byteOffset":1267800,
			"target":34962
		},
		{
			"buffer":0,
			"byteLength":80896,
			"byteOffset":1389144,
			"target":34962
		},
		{
			"buffer":0,
			"byteLength":49152,
			"byteOffset":1470040,
			"target":34963
		},
		{
			"buffer":0,
			"byteLength":150024,
			"byteOffset":1519192,
			"target":34962
		},
		{
			"buffer":0,
			"byteLength":150024,
			"byteOffset":1669216,
			"target":34962
		},
		{
			"buffer":0,
			"byteLength":100016,
			"byteOffset":1819240,
			"target":34962
		},
		{
			"buffer":0,
			"byteLength":49152,
			"byteOffset":1919256,
			"target":34963
		},
		{
			"buffer":0,
			"byteLength":103512,
			"byteOffset":1968408,
			"target":34962
		},
		{
			"buffer":0,
			"byteLength":103512,
			"byteOffset":2071920,
			"target":34962
		},
		{
			"buffer":0,
			"byteLength":69008,
			"byteOffset":2175432,
			"target":34962
		},
		{
			"buffer":0,
			"byteLength":49152,
			"byteOffset":2244440,
			"target":34963
		}
	],
	"samplers":[
		{
			"magFilter":9729,
			"minFilter":9987,
			"wrapS":33071,
			"wrapT":33071
		}
	],
	"buffers":[
		{
			"byteLength":2293592,
			"uri":"alpha.bin"
		}
	]
}
