{
	"asset":{
		"generator":"Khronos glTF Blender I/O v5.0.21",
		"version":"2.0"
	},
	"extensionsUsed":[
		"KHR_materials_specular",
		"KHR_materials_ior"
	],
	"scene":0,
	"scenes":[
		{
			"name":"Scene",
			"nodes":[
				0
			]
		}
	],
	"nodes":[
		{
			"mesh":0,
			"name":"ATLAS V2 A.1 v2",
			"rotation":[
				0.8433914184570312,
				0,
				-0.5372996926307678,
				6.019887877073415e-08
			],
			"scale":[
				-0.08269298076629639,
				-0.08269298821687698,
				-0.08269298821687698
			],
			"translation":[
				0.0011342763900756836,
				8.740744590759277,
				-0.013112545013427734
			]
		}
	],
	"materials":[
		{
			"doubleSided":true,
			"name":"Carbon Fibre"
		},
		{
			"doubleSided":true,
			"extensions":{
				"KHR_materials_specular":{
					"specularColorFactor":[
						0.0,
						0.0,
						0.0
					]
				},
				"KHR_materials_ior":{
					"ior":1.4500000476837158
				}
			},
			"name":"Opaque(193,196,192)",
			"pbrMetallicRoughness":{
				"baseColorFactor":[
					0.756862998008728,
					0.7686269879341125,
					0.7529410123825073,
					1
				],
				"metallicFactor":0
			}
		},
		{
			"doubleSided":true,
			"name":"Oil Painting"
		}
	],
	"meshes":[
		{
			"name":"ATLAS V2 A.1 v2",
			"primitives":[
				{
					"attributes":{
						"POSITION":0,
						"NORMAL":1,
						"TEXCOORD_0":2,
						"TEXCOORD_1":3
					},
					"indices":4,
					"material":0
				},
				{
					"attributes":{
						"POSITION":5,
						"NORMAL":6,
						"TEXCOORD_0":7,
						"TEXCOORD_1":8
					},
					"indices":9,
					"material":1
				},
				{
					"attributes":{
						"POSITION":10,
						"NORMAL":11,
						"TEXCOORD_0":12,
						"TEXCOORD_1":13
					},
					"indices":14,
					"material":2
				}
			]
		}
	],
	"accessors":[
		{
			"bufferView":0,
			"componentType":5126,
			"count":124010,
			"max":[
				11.504539489746094,
				77.27543640136719,
				11.561429977416992
			],
			"min":[
				-11.43009090423584,
				-105.4460678100586,
				-11.373199462890625
			],
			"type":"VEC3"
		},
		{
			"bufferView":1,
			"componentType":5126,
			"count":124010,
			"type":"VEC3"
		},
		{
			"bufferView":2,
			"componentType":5126,
			"count":124010,
			"type":"VEC2"
		},
		{
			"bufferView":3,
			"componentType":5126,
			"count":124010,
			"type":"VEC2"
		},
		{
			"bufferView":4,
			"componentType":5125,
			"count":127140,
			"type":"SCALAR"
		},
		{
			"bufferView":5,
			"componentType":5126,
			"count":9481,
			"max":[
				5.187224388122559,
				81.47543334960938,
				5.244114398956299
			],
			"min":[
				-5.112775802612305,
				73.47543334960938,
				-5.055885314941406
			],
			"type":"VEC3"
		},
		{
			"bufferView":6,
			"componentType":5126,
			"count":9481,
			"type":"VEC3"
		},
		{
			"bufferView":7,
			"componentType":5126,
			"count":9481,
			"type":"VEC2"
		},
		{
			"bufferView":8,
			"componentType":5126,
			"count":9481,
			"type":"VEC2"
		},
		{
			"bufferView":9,
			"componentType":5123,
			"count":9804,
			"type":"SCALAR"
		},
		{
			"bufferView":10,
			"componentType":5126,
			"count":10759,
			"max":[
				5.187224388122559,
				106.67543029785156,
				5.244114398956299
			],
			"min":[
				-5.112775802612305,
				77.67543029785156,
				-5.055885314941406
			],
			"type":"VEC3"
		},
		{
			"bufferView":11,
			"componentType":5126,
			"count":10759,
			"type":"VEC3"
		},
		{
			"bufferView":12,
			"componentType":5126,
			"count":10759,
			"type":"VEC2"
		},
		{
			"bufferView":13,
			"componentType":5126,
			"count":10759,
			"type":"VEC2"
		},
		{
			"bufferView":14,
			"componentType":5123,
			"count":10866,
			"type":"SCALAR"
		}
	],
	"bufferViews":[
		{
			"buffer":0,
			"byteLength":1488120,
			"byteOffset":0,
			"target":34962
		},
		{
			"buffer":0,
			"byteLength":1488120,
			"byteOffset":1488120,
			"target":34962
		},
		{
			"buffer":0,
			"byteLength":992080,
			"byteOffset":2976240,
			"target":34962
		},
		{
			"buffer":0,
			"byteLength":992080,
			"byteOffset":3968320,
			"target":34962
		},
		{
			"buffer":0,
			"byteLength":508560,
			"byteOffset":4960400,
			"target":34963
		},
		{
			"buffer":0,
			"byteLength":113772,
			"byteOffset":5468960,
			"target":34962
		},
		{
			"buffer":0,
			"byteLength":113772,
			"byteOffset":5582732,
			"target":34962
		},
		{
			"buffer":0,
			"byteLength":75848,
			"byteOffset":5696504,
			"target":34962
		},
		{
			"buffer":0,
			"byteLength":75848,
			"byteOffset":5772352,
			"target":34962
		},
		{
			"buffer":0,
			"byteLength":19608,
			"byteOffset":5848200,
			"target":34963
		},
		{
			"buffer":0,
			"byteLength":129108,
			"byteOffset":5867808,
			"target":34962
		},
		{
			"buffer":0,
			"byteLength":129108,
			"byteOffset":5996916,
			"target":34962
		},
		{
			"buffer":0,
			"byteLength":86072,
			"byteOffset":6126024,
			"target":34962
		},
		{
			"buffer":0,
			"byteLength":86072,
			"byteOffset":6212096,
			"target":34962
		},
		{
			"buffer":0,
			"byteLength":21732,
			"byteOffset":6298168,
			"target":34963
		}
	],
	"buffers":[
		{
			"byteLength":6319900,
			"uri":"atlas.bin"
		}
	]
}
