<svg xmlns="http://www.w3.org/2000/svg" width="1600" height="900" viewBox="0 0 1600 900" fill="none">
  <rect width="1600" height="900" fill="#F4F5F7"/>
  <g stroke="#D3D6DC" stroke-width="1" opacity="0.45">
    <path d="M0 100H1600"/><path d="M0 200H1600"/><path d="M0 300H1600"/><path d="M0 400H1600"/><path d="M0 500H1600"/><path d="M0 600H1600"/><path d="M0 700H1600"/><path d="M0 800H1600"/>
    <path d="M100 0V900"/><path d="M200 0V900"/><path d="M300 0V900"/><path d="M400 0V900"/><path d="M500 0V900"/><path d="M600 0V900"/><path d="M700 0V900"/><path d="M800 0V900"/><path d="M900 0V900"/><path d="M1000 0V900"/><path d="M1100 0V900"/><path d="M1200 0V900"/><path d="M1300 0V900"/><path d="M1400 0V900"/><path d="M1500 0V900"/>
  </g>
</svg>
